<?xml version="1.0" encoding="UTF-8" standalone="no"?>
<svg
   height="256"
   viewBox="0 0 256 256"
   width="256"
   version="1.1"
   id="svg19"
   xmlns:xlink="http://www.w3.org/1999/xlink"
   xmlns="http://www.w3.org/2000/svg"
   xmlns:svg="http://www.w3.org/2000/svg">
  <defs
     id="defs23">
    <rect
       x="0.83718707"
       y="-1.1126945"
       width="255.06128"
       height="257.90209"
       id="rect17728" />
    <rect
       x="92.177156"
       y="176.26456"
       width="163.869"
       height="79.741677"
       id="rect5110" />
  </defs>
  <linearGradient
     id="a">
    <stop
       offset="0"
       stop-color="#589632"
       id="stop2" />
    <stop
       offset="1"
       stop-color="#93b023"
       id="stop4" />
  </linearGradient>
  <linearGradient
     id="b"
     gradientUnits="userSpaceOnUse"
     x1="200.788"
     x2="197.17"
     xlink:href="#a"
     y1="249.007"
     y2="11.232" />
  <linearGradient
     id="c"
     gradientUnits="userSpaceOnUse"
     x1="129.939"
     x2="126.351"
     xlink:href="#a"
     y1="252.718"
     y2="16.928" />
  <path
     d="m137.607 136.899h34.437l-29.146-28.816h-35.708v34.309l30.417 30.316z"
     fill="#ee7913"
     id="path9" />
  <path
     d="m248.061 212.048-61.443-60.742h-34.608v35.761l58.881 58.682h37.17z"
     fill="url(#b)"
     id="path11" />
  <path
     d="m152.01 151.306h34.608l-14.574-14.407h-34.437v35.809l14.403 14.359z"
     fill="#f0e64a"
     id="path13" />
  <path
     d="m144.826 199.3c-5.22 1.202-10.643 1.854-16.238 1.854-40.027 0-74.072-32.914-74.072-75.59 0-42.677 33.666-74.869 74.072-74.869 40.401 0 72.57 32.187 72.57 74.869 0 6.937-.863 13.619-2.461 19.945l37.047 37.042c9.552-16.736 14.896-36.197 14.896-57.274 0-65.778-52.493-115.026-122.801-115.026-69.99 0-122.479 48.927-122.479 115.026 0 66.421 52.489 116.321 122.479 116.321 18.066 0 34.952-3.323 50.077-9.371z"
     fill="url(#c)"
     id="path15" />
  <path
     d="m107.19 108.083 140.871 137.666v-33.701l-61.443-60.742-14.574-14.408-29.146-28.815z"
     fill="#fff"
     fill-opacity=".172"
     id="path17" />
  <path
     d="M 127.88763,0.10795941 C 57.356368,0.10795941 0.17890334,57.284909 0.17890334,127.81669 c 0,70.53178 57.17746466,127.70873 127.70872666,127.70873 70.53127,0 127.70873,-57.17746 127.70873,-127.70873 0,-70.531266 -57.17695,-127.70873059 -127.70873,-127.70873059 z M 194.88734,60.816982 c 33.70275,33.702747 36.04682,85.215198 10.64772,121.342348 L 73.54448,50.169782 c 36.15187,-25.416098 87.65865,-23.036493 121.34286,10.6472 z M 60.887926,194.8164 C 27.18518,161.11365 24.841107,109.6012 50.240211,73.474051 L 182.23079,205.4636 C 146.07943,230.8797 94.572134,228.50061 60.887926,194.8164 Z"
     id="path2"
     style="fill:#ff0000;stroke-width:0.514955" />
</svg>
